<?xml version="1.0" encoding="UTF-8"?>
<svg id="Layer_1" data-name="Layer 1" xmlns="http://www.w3.org/2000/svg" viewBox="0 0 167.67 54.24">
  <defs>
    <style>
      .cls-1, .cls-2 {
        fill: none;
        stroke: #f58220;
        stroke-miterlimit: 2.61;
      }

      .cls-2 {
        stroke-width: 5px;
      }

      .cls-3, .cls-4 {
        fill: #f58220;
        stroke-width: 0px;
      }

      .cls-4 {
        fill-rule: evenodd;
      }
    </style>
  </defs>
  <g>
    <path class="cls-2" d="M35.68,25.07v-14.47c.02-2.46.04-2.63.06-5.09.03-4.27-3.58-3.38-5.4-1.15l-7.15,6.24c-1.28,1.25-6.79,1.18-8.14,0-2.47-2.16-4.94-4.31-7.42-6.47-1.3-1.13-5.13-3.35-5.13,1.74l.05,4.73v37.91c.75,4.51,10.33,4.1,10.6,0v-8.92h7.95c5.19,0,8.93-1.02,11.18-3.08,2.26-2.05,3.38-5.43,3.38-10.13v-1.3h0Z"/>
    <path class="cls-4" d="M12.47,19.74c-2.71,0-4.91,2.2-4.91,4.91s2.2,4.91,4.91,4.91,4.91-2.2,4.91-4.91-2.2-4.91-4.91-4.91h0ZM26.53,19.74c-2.71,0-4.91,2.2-4.91,4.91s2.2,4.91,4.91,4.91,4.91-2.2,4.91-4.91-2.2-4.91-4.91-4.91h0Z"/>
    <path class="cls-3" d="M23.63,44.85v5.69c.78,4.71,10.73,4.29,11.01,0v-9.32c-1.89,3.34-9.04,4.16-11.01,3.64h0Z"/>
  </g>
  <g>
    <path class="cls-3" d="M61.07,19.19c0,.85-.15,1.61-.44,2.29s-.72,1.26-1.27,1.74c-.55.48-1.22.85-2.02,1.11-.8.26-1.75.39-2.86.39h-2.04v6.1c0,.07-.02.13-.06.18-.04.05-.11.09-.19.12-.09.03-.21.06-.36.08s-.34.03-.58.03-.42-.01-.57-.03c-.15-.02-.28-.05-.37-.08-.09-.03-.16-.07-.19-.12-.04-.05-.06-.11-.06-.18v-15.63c0-.35.1-.6.29-.75s.41-.22.65-.22h3.84c.39,0,.76.02,1.12.05s.78.1,1.26.2c.48.1.98.29,1.48.56.5.27.93.61,1.28,1.01s.62.87.81,1.39c.19.53.28,1.11.28,1.75ZM58.56,19.37c0-.69-.14-1.27-.41-1.73-.27-.46-.61-.81-1.01-1.03-.4-.23-.82-.37-1.25-.43s-.85-.09-1.25-.09h-2.2v6.79h2.15c.72,0,1.32-.09,1.79-.26.48-.17.88-.42,1.2-.73s.57-.68.73-1.11c.17-.43.25-.9.25-1.41Z"/>
    <path class="cls-3" d="M75.11,30.23c0,.16,0,.29-.03.41-.02.12-.05.22-.1.29-.05.08-.1.14-.16.17-.06.04-.13.05-.2.05h-8.6c-.21,0-.41-.07-.6-.2-.19-.13-.28-.37-.28-.71v-15.1c0-.34.09-.58.28-.71.19-.13.39-.2.6-.2h8.51c.07,0,.14.02.2.05.06.04.11.09.15.17.04.08.07.18.09.29.02.12.03.26.03.44,0,.16-.01.29-.03.41-.02.12-.05.21-.09.29-.04.07-.09.13-.15.16-.06.03-.13.05-.2.05h-7.01v5.31h6.01c.07,0,.14.02.2.06.06.04.11.09.15.16.04.07.07.17.09.29.02.12.03.27.03.43,0,.16,0,.29-.03.41-.02.11-.05.21-.09.27-.04.07-.09.12-.15.15-.06.03-.13.04-.2.04h-6.01v6.06h7.11c.07,0,.14.02.2.05.06.04.11.09.16.16s.08.17.1.29c.02.12.03.26.03.44Z"/>
  </g>
  <g>
    <path class="cls-3" d="M90.66,15.19c0,.17,0,.31-.03.43-.02.12-.05.22-.09.29-.04.07-.09.13-.15.16-.06.04-.13.05-.2.05h-5.04v14.69c0,.07-.02.13-.05.18-.04.05-.1.09-.19.12-.09.03-.21.06-.37.08s-.34.03-.58.03-.41-.01-.57-.03c-.16-.02-.28-.05-.37-.08-.09-.03-.16-.07-.19-.12-.04-.05-.06-.11-.06-.18v-14.69h-5.04c-.07,0-.14-.02-.2-.05-.06-.03-.11-.09-.15-.16-.04-.07-.07-.17-.09-.29-.02-.12-.03-.27-.03-.43s.01-.31.03-.44c.02-.13.05-.23.09-.31.04-.08.09-.14.15-.17.06-.03.13-.05.2-.05h12.47c.07,0,.14.02.2.05.06.04.11.09.15.17.04.08.07.18.09.31.02.13.03.27.03.44Z"/>
    <path class="cls-3" d="M107.9,22.5c0,1.37-.17,2.6-.51,3.7-.34,1.1-.85,2.04-1.53,2.81-.68.77-1.53,1.37-2.56,1.78s-2.22.62-3.59.62-2.51-.19-3.5-.57c-.98-.38-1.8-.93-2.44-1.66-.64-.72-1.12-1.62-1.43-2.7-.31-1.07-.47-2.31-.47-3.7s.17-2.55.51-3.64c.34-1.09.85-2.02,1.54-2.78.68-.76,1.54-1.35,2.56-1.77s2.22-.62,3.59-.62,2.47.19,3.45.56c.98.38,1.79.92,2.45,1.64s1.14,1.61,1.46,2.67c.32,1.06.48,2.27.48,3.64ZM105.38,22.65c0-.96-.09-1.85-.27-2.68-.18-.82-.48-1.54-.9-2.15-.42-.61-.98-1.08-1.68-1.42s-1.57-.51-2.6-.51-1.9.18-2.6.55c-.7.37-1.27.85-1.71,1.47-.44.61-.75,1.32-.94,2.14-.19.82-.28,1.67-.28,2.57,0,1,.09,1.91.26,2.75.17.84.47,1.56.89,2.17.42.61.97,1.08,1.67,1.41s1.57.5,2.62.5,1.92-.18,2.63-.55c.71-.37,1.28-.86,1.72-1.49s.74-1.35.93-2.17c.18-.82.28-1.69.28-2.6Z"/>
  </g>
  <g>
    <path class="cls-3" d="M131.58,30.82c0,.07-.02.13-.06.18-.04.05-.1.09-.2.12-.09.03-.22.06-.36.08s-.34.03-.58.03c-.22,0-.41-.01-.56-.03s-.28-.05-.37-.08c-.09-.03-.15-.07-.19-.12-.04-.05-.06-.11-.06-.18v-14.75h-.03l-6.32,14.82c-.03.06-.07.11-.12.16-.05.04-.12.08-.22.11-.1.03-.21.05-.35.07-.13.01-.29.02-.48.02-.19,0-.36,0-.5-.03-.14-.02-.25-.04-.35-.07-.09-.03-.16-.07-.21-.11-.05-.04-.09-.09-.1-.14l-6.04-14.82h-.01v14.75c0,.07-.02.13-.06.18-.04.05-.1.09-.2.12-.09.03-.22.06-.37.08s-.35.03-.58.03-.42-.01-.57-.03-.27-.05-.36-.08c-.09-.03-.15-.07-.19-.12-.03-.05-.05-.11-.05-.18v-15.57c0-.37.1-.63.31-.79.21-.16.44-.24.69-.24h1.46c.3,0,.56.03.79.08.22.05.42.14.59.25.17.11.31.26.42.43.11.17.21.38.3.61l5.13,12.26h.07l5.33-12.22c.1-.26.22-.48.34-.67s.26-.33.4-.44c.15-.11.31-.19.49-.24.18-.05.38-.07.62-.07h1.53c.14,0,.27.02.4.06.13.04.23.1.32.18.09.08.16.19.22.31s.08.28.08.46v15.57Z"/>
    <path class="cls-3" d="M150.19,30.36c.07.19.11.35.12.46,0,.12-.03.21-.1.27-.07.06-.2.1-.37.12-.17.02-.4.03-.69.03s-.51,0-.69-.02c-.17-.01-.3-.03-.39-.07-.09-.03-.15-.07-.19-.12-.04-.05-.08-.12-.12-.2l-1.54-4.12h-7.45l-1.47,4.07c-.03.08-.06.15-.11.2s-.11.1-.2.14c-.09.04-.21.07-.37.09-.16.02-.37.03-.63.03s-.49-.01-.66-.03-.29-.06-.36-.12c-.07-.06-.1-.15-.1-.27,0-.12.04-.27.12-.46l6.01-15.73c.04-.1.09-.17.15-.24.06-.06.15-.11.26-.14s.26-.06.44-.07c.18-.01.41-.02.69-.02.3,0,.54,0,.73.02.19.01.35.04.47.07s.21.08.28.15.12.15.15.24l6.01,15.73ZM142.47,16.48h-.01l-3.09,8.44h6.24l-3.13-8.44Z"/>
  </g>
  <path class="cls-3" d="M167.17,30.23c0,.17-.03.32-.09.45-.06.12-.14.22-.24.3-.1.08-.21.14-.34.17-.12.03-.25.05-.37.05h-.79c-.25,0-.47-.02-.65-.07-.19-.05-.36-.13-.53-.26-.17-.13-.33-.3-.5-.52-.17-.22-.34-.5-.53-.84l-5.47-9.63c-.29-.5-.57-1.02-.87-1.56-.29-.54-.56-1.08-.81-1.59h-.03c.02.63.03,1.27.04,1.92,0,.65.01,1.3.01,1.95v10.22c0,.06-.02.12-.06.18-.04.06-.11.1-.2.13-.09.03-.21.06-.37.08s-.34.03-.58.03-.43-.01-.58-.03c-.15-.02-.27-.05-.36-.08-.09-.03-.15-.07-.19-.13-.04-.06-.06-.12-.06-.18v-15.63c0-.35.1-.6.31-.75s.44-.22.69-.22h1.17c.28,0,.51.02.69.07.19.04.35.12.5.22.15.1.29.24.43.42.14.18.28.4.43.67l4.21,7.43c.26.45.51.9.75,1.33.24.43.47.86.7,1.28.22.42.44.83.66,1.24.22.41.44.81.65,1.22h.01c-.02-.69-.03-1.41-.04-2.15s0-1.46,0-2.15v-9.19c0-.06.02-.12.06-.17s.1-.1.2-.14c.09-.04.21-.07.37-.08.15-.02.35-.03.59-.03.21,0,.4,0,.56.03.16.02.28.05.37.08.09.04.15.09.19.14s.06.11.06.17v15.63Z"/>
  <g>
    <path class="cls-1" d="M61.07,19.19c0,.85-.15,1.61-.44,2.29s-.72,1.26-1.27,1.74c-.55.48-1.22.85-2.02,1.11-.8.26-1.75.39-2.86.39h-2.04v6.1c0,.07-.02.13-.06.18-.04.05-.11.09-.19.12-.09.03-.21.06-.36.08s-.34.03-.58.03-.42-.01-.57-.03c-.15-.02-.28-.05-.37-.08-.09-.03-.16-.07-.19-.12-.04-.05-.06-.11-.06-.18v-15.63c0-.35.1-.6.29-.75s.41-.22.65-.22h3.84c.39,0,.76.02,1.12.05s.78.1,1.26.2c.48.1.98.29,1.48.56.5.27.93.61,1.28,1.01s.62.87.81,1.39c.19.53.28,1.11.28,1.75ZM58.56,19.37c0-.69-.14-1.27-.41-1.73-.27-.46-.61-.81-1.01-1.03-.4-.23-.82-.37-1.25-.43s-.85-.09-1.25-.09h-2.2v6.79h2.15c.72,0,1.32-.09,1.79-.26.48-.17.88-.42,1.2-.73s.57-.68.73-1.11c.17-.43.25-.9.25-1.41Z"/>
    <path class="cls-1" d="M75.11,30.23c0,.16,0,.29-.03.41-.02.12-.05.22-.1.29-.05.08-.1.14-.16.17-.06.04-.13.05-.2.05h-8.6c-.21,0-.41-.07-.6-.2-.19-.13-.28-.37-.28-.71v-15.1c0-.34.09-.58.28-.71.19-.13.39-.2.6-.2h8.51c.07,0,.14.02.2.05.06.04.11.09.15.17.04.08.07.18.09.29.02.12.03.26.03.44,0,.16-.01.29-.03.41-.02.12-.05.21-.09.29-.04.07-.09.13-.15.16-.06.03-.13.05-.2.05h-7.01v5.31h6.01c.07,0,.14.02.2.06.06.04.11.09.15.16.04.07.07.17.09.29.02.12.03.27.03.43,0,.16,0,.29-.03.41-.02.11-.05.21-.09.27-.04.07-.09.12-.15.15-.06.03-.13.04-.2.04h-6.01v6.06h7.11c.07,0,.14.02.2.05.06.04.11.09.16.16s.08.17.1.29c.02.12.03.26.03.44Z"/>
  </g>
  <g>
    <path class="cls-1" d="M90.66,15.19c0,.17,0,.31-.03.43-.02.12-.05.22-.09.29-.04.07-.09.13-.15.16-.06.04-.13.05-.2.05h-5.04v14.69c0,.07-.02.13-.05.18-.04.05-.1.09-.19.12-.09.03-.21.06-.37.08s-.34.03-.58.03-.41-.01-.57-.03c-.16-.02-.28-.05-.37-.08-.09-.03-.16-.07-.19-.12-.04-.05-.06-.11-.06-.18v-14.69h-5.04c-.07,0-.14-.02-.2-.05-.06-.03-.11-.09-.15-.16-.04-.07-.07-.17-.09-.29-.02-.12-.03-.27-.03-.43s.01-.31.03-.44c.02-.13.05-.23.09-.31.04-.08.09-.14.15-.17.06-.03.13-.05.2-.05h12.47c.07,0,.14.02.2.05.06.04.11.09.15.17.04.08.07.18.09.31.02.13.03.27.03.44Z"/>
    <path class="cls-1" d="M107.9,22.5c0,1.37-.17,2.6-.51,3.7-.34,1.1-.85,2.04-1.53,2.81-.68.77-1.53,1.37-2.56,1.78s-2.22.62-3.59.62-2.51-.19-3.5-.57c-.98-.38-1.8-.93-2.44-1.66-.64-.72-1.12-1.62-1.43-2.7-.31-1.07-.47-2.31-.47-3.7s.17-2.55.51-3.64c.34-1.09.85-2.02,1.54-2.78.68-.76,1.54-1.35,2.56-1.77s2.22-.62,3.59-.62,2.47.19,3.45.56c.98.38,1.79.92,2.45,1.64s1.14,1.61,1.46,2.67c.32,1.06.48,2.27.48,3.64ZM105.38,22.65c0-.96-.09-1.85-.27-2.68-.18-.82-.48-1.54-.9-2.15-.42-.61-.98-1.08-1.68-1.42s-1.57-.51-2.6-.51-1.9.18-2.6.55c-.7.37-1.27.85-1.71,1.47-.44.61-.75,1.32-.94,2.14-.19.82-.28,1.67-.28,2.57,0,1,.09,1.91.26,2.75.17.84.47,1.56.89,2.17.42.61.97,1.08,1.67,1.41s1.57.5,2.62.5,1.92-.18,2.63-.55c.71-.37,1.28-.86,1.72-1.49s.74-1.35.93-2.17c.18-.82.28-1.69.28-2.6Z"/>
  </g>
  <g>
    <path class="cls-1" d="M131.58,30.82c0,.07-.02.13-.06.18-.04.05-.1.09-.2.12-.09.03-.22.06-.36.08s-.34.03-.58.03c-.22,0-.41-.01-.56-.03s-.28-.05-.37-.08c-.09-.03-.15-.07-.19-.12-.04-.05-.06-.11-.06-.18v-14.75h-.03l-6.32,14.82c-.03.06-.07.11-.12.16-.05.04-.12.08-.22.11-.1.03-.21.05-.35.07-.13.01-.29.02-.48.02-.19,0-.36,0-.5-.03-.14-.02-.25-.04-.35-.07-.09-.03-.16-.07-.21-.11-.05-.04-.09-.09-.1-.14l-6.04-14.82h-.01v14.75c0,.07-.02.13-.06.18-.04.05-.1.09-.2.12-.09.03-.22.06-.37.08s-.35.03-.58.03-.42-.01-.57-.03-.27-.05-.36-.08c-.09-.03-.15-.07-.19-.12-.03-.05-.05-.11-.05-.18v-15.57c0-.37.1-.63.31-.79.21-.16.44-.24.69-.24h1.46c.3,0,.56.03.79.08.22.05.42.14.59.25.17.11.31.26.42.43.11.17.21.38.3.61l5.13,12.26h.07l5.33-12.22c.1-.26.22-.48.34-.67s.26-.33.4-.44c.15-.11.31-.19.49-.24.18-.05.38-.07.62-.07h1.53c.14,0,.27.02.4.06.13.04.23.1.32.18.09.08.16.19.22.31s.08.28.08.46v15.57Z"/>
    <path class="cls-1" d="M150.19,30.36c.07.19.11.35.12.46,0,.12-.03.21-.1.27-.07.06-.2.1-.37.12-.17.02-.4.03-.69.03s-.51,0-.69-.02c-.17-.01-.3-.03-.39-.07-.09-.03-.15-.07-.19-.12-.04-.05-.08-.12-.12-.2l-1.54-4.12h-7.45l-1.47,4.07c-.03.08-.06.15-.11.2s-.11.1-.2.14c-.09.04-.21.07-.37.09-.16.02-.37.03-.63.03s-.49-.01-.66-.03-.29-.06-.36-.12c-.07-.06-.1-.15-.1-.27,0-.12.04-.27.12-.46l6.01-15.73c.04-.1.09-.17.15-.24.06-.06.15-.11.26-.14s.26-.06.44-.07c.18-.01.41-.02.69-.02.3,0,.54,0,.73.02.19.01.35.04.47.07s.21.08.28.15.12.15.15.24l6.01,15.73ZM142.47,16.48h-.01l-3.09,8.44h6.24l-3.13-8.44Z"/>
  </g>
  <path class="cls-1" d="M167.17,30.23c0,.17-.03.32-.09.45-.06.12-.14.22-.24.3-.1.08-.21.14-.34.17-.12.03-.25.05-.37.05h-.79c-.25,0-.47-.02-.65-.07-.19-.05-.36-.13-.53-.26-.17-.13-.33-.3-.5-.52-.17-.22-.34-.5-.53-.84l-5.47-9.63c-.29-.5-.57-1.02-.87-1.56-.29-.54-.56-1.08-.81-1.59h-.03c.02.63.03,1.27.04,1.92,0,.65.01,1.3.01,1.95v10.22c0,.06-.02.12-.06.18-.04.06-.11.1-.2.13-.09.03-.21.06-.37.08s-.34.03-.58.03-.43-.01-.58-.03c-.15-.02-.27-.05-.36-.08-.09-.03-.15-.07-.19-.13-.04-.06-.06-.12-.06-.18v-15.63c0-.35.1-.6.31-.75s.44-.22.69-.22h1.17c.28,0,.51.02.69.07.19.04.35.12.5.22.15.1.29.24.43.42.14.18.28.4.43.67l4.21,7.43c.26.45.51.9.75,1.33.24.43.47.86.7,1.28.22.42.44.83.66,1.24.22.41.44.81.65,1.22h.01c-.02-.69-.03-1.41-.04-2.15s0-1.46,0-2.15v-9.19c0-.06.02-.12.06-.17s.1-.1.2-.14c.09-.04.21-.07.37-.08.15-.02.35-.03.59-.03.21,0,.4,0,.56.03.16.02.28.05.37.08.09.04.15.09.19.14s.06.11.06.17v15.63Z"/>
</svg>